<?xml version="1.0" encoding="UTF-8"?><svg xmlns="http://www.w3.org/2000/svg" viewBox="0 0 1988.3 1368.04"><defs><style>.d{fill:#fff;}</style></defs><g id="a"/><g id="b"><g id="c"><g><path class="d" d="M1724.39,642.91c0,86.17,0,172.35,0,258.52,0,2.24-.03,4.48-.04,6.71-.07,13.28-12.83,26.25-26.33,26.18-1.6,0-3.2,.02-4.8,.02-115.15,0-230.3,0-345.45,0-1.6,0-3.2-.03-4.8,0-13.11,.15-26.1-11.89-26.62-25.92-.06-1.6-.04-3.2-.04-4.8,0-174.11,0-348.22,0-522.32,0-1.44,0-2.88,.03-4.32,.36-13.05,11.46-23.73,21.62-25.64,1.72-.32,3.48-.52,5.23-.62,1.91-.11,3.84-.04,5.76-.04,114.35,0,228.7,0,343.05,0,2.24,0,4.48-.03,6.72,.07,14.04,.64,25.43,13.75,25.62,25.96,.03,2.24,.06,4.48,.06,6.71,0,86.49,0,172.99,0,259.48Zm-58.02-234.12c-2.1-.7-4.02-.45-5.9-.45-64.28-.01-128.56,0-192.84,0-1.12,0-2.25-.07-3.36,.03-.9,.08-1.79,.38-2.96,.64-.02,2.23-.06,4.29-.06,6.35,0,151.38,0,302.75,0,454.13,0,1.44-.06,2.88,.04,4.31,.06,.9,.37,1.79,.55,2.59,3.21,.41,197.27,.74,202.64,.35,.6-.04,1.19-.29,1.99-.49,.11-.87,.27-1.63,.3-2.4,.5-12.79,.15-460.7-.4-465.06Z"/><path class="d" d="M1520.82,158.31c-1.46,1.37-2.52,2.32-3.53,3.33-33.71,33.68-67.41,67.37-101.11,101.06-58.68,58.69-117.35,117.39-176.04,176.07-45.23,45.23-90.51,90.41-135.71,135.66-4.8,4.8-10.24,8.16-17.01,9.05-5.12,.68-10.22,.59-15.18-1.06-10.32-3.43-18.01-13.87-18.59-25.09-.49-9.33,2.57-17.09,9.25-23.75,38.16-38.05,76.23-76.2,114.29-114.34,54.33-54.44,108.64-108.91,162.97-163.36,24.96-25.02,49.95-50,74.92-75.01,56.16-56.24,112.31-112.48,168.46-168.73,1.13-1.13,2.27-2.26,3.39-3.4,3.93-4,8.69-6.48,14.17-7.55,5.58-1.09,11.15-.99,16.63,.55,4.71,1.32,8.72,3.83,12.19,7.32,13.75,13.83,27.58,27.6,41.35,41.41,21.45,21.51,42.88,43.05,64.33,64.57,30.93,31.03,61.87,62.05,92.82,93.07,26.09,26.15,52.22,52.26,78.3,78.42,24.62,24.68,49.06,49.53,73.87,74.02,9.86,9.73,9.83,27.89,1.02,37.62-1.29,1.42-2.63,2.79-3.99,4.15-28.04,28.04-56.09,56.08-84.13,84.11-.79,.79-1.63,1.54-2.42,2.33-6.62,6.58-14.68,8.75-23.75,7.73-4.72-.53-8.99-2.3-12.67-5.29-2.23-1.81-4.33-3.79-6.36-5.82-20.82-20.79-41.62-41.6-62.43-62.41-36.29-36.3-72.58-72.6-108.88-108.89-28.16-28.15-56.32-56.3-84.48-84.45-22.73-22.72-45.46-45.45-68.19-68.17-1-1-2.08-1.91-3.48-3.18Z"/><path class="d" d="M584.38,262.9c1.41,.21,2.18,.41,2.95,.41,8.31,0,16.63-.03,24.94-.08,.43,0,.86-.33,1.47-.58,.12-.73,.31-1.49,.34-2.26,.06-1.44,.03-2.88,.03-4.32,0-75.14,0-150.28,.01-225.42,0-2.23,.02-4.49,.31-6.69,1.4-10.64,11.82-23.15,27.5-23.88,1.28-.06,2.56-.04,3.84-.04,27.51,0,55.01,0,82.52,0,.96,0,1.92,0,2.88,0,10.58,.2,18.64,5.03,24.62,13.54,2.53,3.6,3.95,7.66,4.21,12.08,.11,1.91,.13,3.83,.14,5.75,0,16.79,0,33.57,.02,50.36,0,1.71-.32,3.49,.49,5.23,1.73,.8,3.52,.51,5.23,.51,11.67,.03,23.35,.01,35.02,.01,34.22,0,68.45,0,102.67,0,2.24,0,4.48,.07,6.71,.23,11.86,.85,24.31,12.54,24.41,26.05,.02,3.03,.11,6.12-.42,9.08-1.98,11.07-11.49,20.19-22.68,21.91-2.67,.41-5.41,.49-8.12,.49-45.58,.03-91.16,.02-136.74,.02-1.9,0-3.8,.05-5.9,.08-.27,1.11-.58,1.98-.66,2.88-.11,1.11-.04,2.24-.04,3.35,0,35.17,0,70.34,0,105.52,0,1.74,.05,3.48,.09,5.42,1.1,.29,1.97,.65,2.86,.72,1.43,.12,2.88,.04,4.32,.04,45.1,0,90.2,0,135.3,0,2.24,0,4.48,0,6.71,.11,12.83,.68,25.22,12.62,25.28,26.21,.01,3.03,.1,6.12-.45,9.08-2.27,12.1-13.28,21.56-25.6,22.23-1.6,.09-3.2,.05-4.8,.05-144.57,0-289.15,0-433.72,0-.96,0-1.92-.02-2.88,0-14.26,.34-27.82-12.25-27.93-27.78-.06-9.19,2.74-16.91,9.72-23.02,4.75-4.16,10.21-6.5,16.52-6.81,1.76-.09,3.52-.06,5.28-.06,16.63,0,33.26,0,49.9-.01,1.73,0,3.45-.11,5.42-.18,.2-1.19,.44-2.09,.48-3,.08-1.44,.03-2.88,.03-4.32,0-74.82,0-149.64,.02-224.46,0-2.71,.05-5.46,.53-8.11,1.84-10.31,8.01-17.32,17.53-21.16,10.09-4.07,24.47-2.93,34.04,9.37,3.34,4.29,5.18,9.15,5.46,14.58,.08,1.6,.05,3.2,.05,4.79,0,75.14,0,150.28,0,225.42,0,2.06,.04,4.12,.06,6.62Z"/><path class="d" d="M116.53,671.32c-7.86,.48-14.76-2.83-20.74-8.84-28.65-28.78-57.35-57.5-86.11-86.18-8.29-8.27-10.27-18.11-7.8-29.13,1.11-4.95,3.84-9.08,7.43-12.66,5.89-5.87,11.73-11.78,17.6-17.67,50.45-50.62,100.91-101.23,151.35-151.85,30.47-30.58,60.93-61.16,91.4-91.74,.68-.68,1.39-1.33,2.03-2.04,10.14-11.17,30.47-11.43,41.44-.04,10.31,10.71,20.9,21.15,31.36,31.72,18.77,18.99,37.51,38.01,56.32,56.95,3.46,3.48,6.35,7.3,7.39,12.11,2.25,10.45,.66,20.05-7.2,27.94-11.96,12.01-23.96,23.98-35.94,35.96-68.52,68.5-137.03,137-205.55,205.5-7.35,7.35-14.8,14.6-21.98,22.1-5.08,5.3-11.14,7.84-18.38,7.84h-2.62Z"/><path class="d" d="M821.88,1359.83c-.18-.53-.46-.97-.46-1.41-.03-106.96-.05-213.93-.05-320.89,0-.61,.22-1.22,.38-2.04,.95-.19,1.85-.39,2.76-.52,.47-.07,.96-.02,1.44-.02,42.22,.02,84.45-.05,126.67,.12,15.54,.06,30.97,1.67,46.1,5.48,9.02,2.27,17.77,5.25,26.05,9.56,10.2,5.3,19.18,12.12,26.33,21.2,8.33,10.58,13.07,22.67,14.58,35.98,1.38,12.17,.9,24.26-2.36,36.16-4.08,14.91-12.45,26.83-24.9,35.95-7.02,5.14-14.7,9-22.77,12.18-1.3,.51-2.56,1.11-3.88,1.68,.81,1.68,2.22,1.59,3.38,1.89,6.68,1.73,13.16,4,19.38,6.96,9.96,4.73,18.68,11.06,25.51,19.83,7.26,9.31,11.4,19.93,13.23,31.49,2.18,13.74,1.87,27.43-1.82,40.9-5.31,19.34-16.72,34.29-33.32,45.37-12.27,8.18-25.81,13.3-40.14,16.46-12.38,2.73-24.92,4.09-37.59,4.19-13.27,.1-26.55,.07-39.82,.07-31.03,0-62.06,0-93.09-.01-1.87,0-3.82,.36-5.62-.55Zm77.63-61.16c1.76,.07,3.33,.18,4.89,.19,11.19,.02,22.38,.03,33.57,0,4.31-.01,8.65,.07,12.94-.3,5.08-.44,10.16-1.15,15.18-2.04,4.42-.79,8.57-2.5,12.5-4.73,6.58-3.73,11.07-9.18,13.01-16.47,2.44-9.15,2.32-18.35-.55-27.42-2.12-6.68-6.37-11.72-12.3-15.38-3.71-2.29-7.75-3.77-11.93-4.89-6.99-1.88-14.13-2.71-21.34-2.76-14.22-.12-28.45-.08-42.68-.09-1.07,0-2.15,.21-3.42,.35-.16,.98-.36,1.73-.4,2.49-.49,10.67-.14,66.71,.53,71.07Zm-.55-132.21c2.03,.14,3.44,.31,4.84,.31,11.99,.02,23.99,.05,35.98-.02,4.15-.03,8.32-.2,12.46-.57,6.87-.62,13.62-1.86,19.97-4.73,9.42-4.26,15.16-11.43,17.15-21.61,.77-3.96,.86-7.94,.69-11.94-.62-14.39-7.91-24-21.56-28.48-1.52-.5-3.06-1-4.63-1.21-5.22-.72-10.45-1.76-15.69-1.85-15.35-.27-30.7-.15-46.05-.15-.9,0-1.8,.3-3.15,.53,0,23.16,0,46.13,0,69.72Z"/><path class="d" d="M325.74,1035.42c.87-.17,1.48-.4,2.09-.4,24.78,0,49.57,0,74.35,.04,.45,0,.89,.27,1.56,.48,.16,.85,.44,1.75,.49,2.66,.09,1.43,.03,2.88,.03,4.31,0,36.61,0,73.21,.02,109.82,0,1.89-.33,3.83,.6,5.93,.96,.14,2.02,.41,3.08,.43,4.16,.05,8.31,.02,12.47,.02,32.62,0,65.24,0,97.86-.01,1.88,0,3.81,.29,5.83-.52,.15-.78,.38-1.53,.41-2.3,.07-1.44,.03-2.88,.03-4.31,0-36.77,0-73.53,.01-110.3,0-1.88-.29-3.81,.46-5.76,.66-.18,1.25-.48,1.85-.48,24.94,0,49.89,.02,74.83,.06,.43,0,.86,.35,1.3,.54,.15,.49,.41,.93,.41,1.38,.03,106.94,.04,213.88,.04,320.82,0,.61-.18,1.22-.32,2.1-.98,.17-1.88,.45-2.78,.46-4,.05-7.99,.03-11.99,.03-19.35,0-38.7,.01-58.05-.02-1.72,0-3.51,.35-5.31-.63-.78-1.58-.44-3.36-.44-5.07-.03-14.07-.02-28.13-.02-42.2,0-26.86,0-53.71,0-80.57,0-1.74-.06-3.48-.09-5.4-1.12-.28-2-.61-2.9-.69-1.27-.11-2.56-.04-3.84-.04-35.66,0-71.32,0-106.98,0-1.9,0-3.8,.06-5.83,.09-.27,1.2-.58,2.09-.64,3.01-.1,1.43-.04,2.88-.04,4.31,0,40.12,0,80.25,0,120.37,0,2.05,.21,4.12-.38,6.23-1.91,.89-3.84,.57-5.71,.58-18.07,.03-36.14,.02-54.21,.02-4.64,0-9.27,.02-13.91-.01-1.4-.01-2.8-.18-4.32-.29-.18-1.06-.39-1.82-.43-2.59-.53-12.49-.16-317.86,.43-322.13Z"/><path class="d" d="M266.8,1133.69c-3.28,.4-75.69,.71-79.63,.37-.6-.05-1.19-.34-1.87-.54-.4-3.41-.71-6.74-1.19-10.05-.7-4.78-2.15-9.34-4.44-13.61-4.95-9.22-12.65-15.22-22.53-18.22-13.33-4.04-26.79-4.1-40.19-.18-4.64,1.35-8.92,3.5-12.75,6.49-10.49,8.19-12.61,20.04-9.16,30.97,1.59,5.06,5.1,8.8,9.39,11.81,4.49,3.13,9.35,5.59,14.51,7.35,7.71,2.63,15.45,5.23,23.3,7.4,13.71,3.79,27.54,7.11,41.26,10.86,11.11,3.04,22.04,6.65,32.63,11.24,8.82,3.83,17.33,8.2,25.18,13.81,17.93,12.82,28.79,30.1,32.57,51.78,2.7,15.46,2.51,30.88-1.34,46.16-5.46,21.64-17.46,38.87-35.29,52.14-14.35,10.68-30.55,17.28-47.82,21.37-22.15,5.24-44.6,6.14-67.22,4.26-11.66-.97-23.16-2.86-34.43-6.04-14.26-4.02-27.68-9.87-39.73-18.62-19.44-14.1-31.81-32.94-37.65-56.15-2.15-8.56-3.22-17.28-3.65-26.08-.08-1.58-.01-3.17-.01-4.96,1.06-.27,1.93-.58,2.83-.69,.95-.11,1.92-.03,2.88-.03,24.15,0,48.3,0,72.45,.02,1.72,0,3.51-.35,5.5,.58,.14,1.09,.4,2.31,.45,3.54,.17,4.33,.73,8.59,1.74,12.81,3.91,16.31,14.18,26.46,30.19,30.88,9.18,2.53,18.57,3.15,28.06,2.44,6.89-.51,13.66-1.59,20.07-4.31,2.05-.87,4.1-1.83,6.01-2.97,10.87-6.49,16.05-16.12,15.62-28.76-.34-10.05-4.73-17.75-13.41-22.93-4.68-2.8-9.61-5.12-14.84-6.68-11.18-3.33-22.38-6.59-33.63-9.66-16.19-4.42-32.47-8.52-48.28-14.24-10.09-3.66-19.91-7.88-29.12-13.44-7.43-4.49-14.27-9.71-20.21-16.07-9.53-10.19-15.56-22.21-18.48-35.78-2.89-13.42-3.3-26.98-.89-40.51,4.43-24.92,17.56-44.26,38.26-58.6,13.61-9.43,28.78-15.24,44.81-18.88,18.05-4.1,36.35-5.32,54.83-4.31,11.2,.61,22.32,1.76,33.28,4.22,10.33,2.31,20.35,5.52,29.89,10.19,25.9,12.69,42.16,33.08,48.98,61.05,2.21,9.05,3.09,18.27,3.4,27.56,.03,.92-.18,1.86-.31,3.01Z"/><path class="d" d="M1308.87,1035.42c.56-.16,1-.39,1.45-.39,24.95-.01,49.89,0,74.84,.02,.45,0,.9,.24,1.61,.45,.16,.83,.4,1.72,.49,2.62,.09,.95,.03,1.92,.03,2.88,0,64.43,.01,128.85-.01,193.28,0,14.59-1.29,29.06-4.68,43.28-3.51,14.75-9.13,28.62-17.74,41.16-12.81,18.66-30.14,31.48-51.23,39.44-14.49,5.47-29.53,8.3-44.91,9.33-17.13,1.15-34.2,.58-51.12-2.66-11.99-2.3-23.57-5.84-34.53-11.26-25.42-12.58-42.79-32.43-52.89-58.79-4.49-11.72-7.12-23.86-8.61-36.3-1.07-8.91-1.36-17.84-1.36-26.8,0-63.31,0-126.62,.02-189.92,0-2.04-.44-4.15,.65-6.3,.68-.14,1.43-.4,2.19-.45,7.84-.44,71.93-.1,75.54,.41,.19,.78,.52,1.65,.59,2.55,.1,1.43,.04,2.88,.04,4.31,0,62.19,0,124.38,0,186.57,0,7.04,.04,14.06,1.12,21.05,1.12,7.31,2.93,14.41,6.1,21.11,6.67,14.09,17.62,22.89,32.87,26.16,9.99,2.14,20.03,2.04,29.98-.34,14.62-3.48,25.16-12.11,31.64-25.65,4.12-8.62,6.15-17.81,6.84-27.29,.39-5.42,.52-10.86,.53-16.29,.03-62.19,.02-124.38,.04-186.57,0-1.86-.42-3.81,.53-5.62Z"/><path class="d" d="M671.63,730.88c.5,8.14-2.99,15.07-9.13,21.18-37.95,37.78-75.78,75.67-113.64,113.52-18.99,18.98-37.97,37.97-56.96,56.96-1.47,1.47-2.96,2.92-4.43,4.39-3.74,3.76-8.26,6.07-13.46,6.81-10.7,1.54-20.22-.63-28.11-8.68-20.7-21.12-41.55-42.08-62.33-63.11-7.98-8.07-15.61-16.53-24.02-24.12-10.93-9.86-10.19-30.05-.18-39.79,14.54-14.16,28.66-28.75,42.97-43.15,31.21-31.4,62.42-62.8,93.64-94.19,12.51-12.58,24.99-25.19,37.56-37.71,8.39-8.36,18.47-11.03,29.95-8.29,5.25,1.26,9.73,4.02,13.56,7.78,3.31,3.25,6.53,6.58,9.79,9.88,24.28,24.54,48.56,49.09,72.85,73.62,1.46,1.48,2.92,2.96,4.45,4.37,5.14,4.72,7.42,10.66,7.51,17.53,.01,.8,0,1.6,0,2.99Z"/><path class="d" d="M1987.94,1359.99c-.69,.13-1.45,.38-2.21,.41-9.37,.46-76.03,.12-79.63-.38-1.47-1.21-1.53-3.08-2.02-4.72-5.88-19.59-11.71-39.21-17.56-58.81-.45-1.51-1-2.98-1.47-4.4-2.06-.92-4.01-.57-5.89-.57-33.75-.02-67.49-.02-101.24-.02-2.4,0-4.8-.03-7.2,0-3.31,.06-3.44,.13-4.44,3.17-1.24,3.8-2.39,7.63-3.56,11.45-5.09,16.66-10.17,33.32-15.26,49.98-.37,1.22-.81,2.41-1.16,3.47-1.76,1.24-3.57,.82-5.29,.82-13.43,.03-26.87,.02-40.3,.02-10.72,0-21.43,.02-32.15-.02-1.55,0-3.19,.39-4.64-.65-.42-1.88,.59-3.45,1.14-5.07,8.27-24.37,16.57-48.72,24.88-73.08,15.22-44.63,30.44-89.25,45.66-133.88,12.17-35.7,24.33-71.41,36.5-107.11,2.11-6.21,1.27-5.65,7.99-5.65,30.55,0,61.09,0,91.64,0,1.89,0,3.83-.27,5.74,.43,.33,.57,.75,1.08,.95,1.67,36.57,107.25,73.13,214.51,109.67,321.78,.09,.26-.08,.62-.16,1.13Zm-123.04-133.62c.17-.53,.4-.86,.34-1.12-.37-1.55-.76-3.09-1.24-4.61-10.71-34.12-20.78-68.42-29.83-103.02-2.42-9.27-4.74-18.56-7.15-27.83-.26-.99-.79-1.91-1.54-3.68-.65,2.05-1.09,3.21-1.39,4.42-7.78,31.96-16.39,63.69-25.43,95.31-3.47,12.12-7.02,24.22-10.51,36.34-.38,1.31-1.23,2.64-.24,4.03,4.47,.63,40.29,.84,73.3,.41,1.25-.02,2.51-.17,3.68-.25Z"/><path class="d" d="M1406.22,1035.26c1.95-.14,3.02-.28,4.1-.28,26.39-.01,52.77,.05,79.16-.08,3.26-.02,5.01,1.12,6.13,4.05,.97,2.53,2.3,4.92,3.47,7.37,10.92,22.94,22,45.82,32.71,68.86,8.49,18.26,16.1,36.92,23.09,55.81,.52,1.41,.7,3.09,2.24,4.13,1.56-1.11,1.66-2.81,2.22-4.24,3.93-10.13,7.72-20.32,11.77-30.4,6.49-16.17,13.76-32.01,21.31-47.71,8.38-17.43,16.75-34.87,25.13-52.29,.82-1.72,1.72-3.4,2.41-4.75,.56-.3,.69-.38,.84-.44,.14-.07,.29-.16,.44-.17,.96-.06,1.91-.13,2.87-.13,27.03,0,54.05,.01,81.08,.03,.46,0,.93,.16,1.35,.23,.94,1.26-.04,2.16-.54,3.08-6.83,12.48-13.68,24.95-20.53,37.41-16.87,30.67-33.76,61.33-50.63,92-11.95,21.7-23.85,43.43-35.88,65.09-1.77,3.19-2.55,6.36-2.54,10,.09,37.09,.06,74.18,.04,111.27,0,1.88,.27,3.81-.33,5.51-1.59,1.23-3.25,.82-4.8,.83-10.39,.04-20.79,.02-31.18,.02-12.31,0-24.63,.02-36.94-.02-1.73,0-3.52,.38-5.19-.53-.96-1.64-.57-3.44-.58-5.16-.03-14.39-.02-28.78-.02-43.16,0-22.7-.07-45.4,.07-68.1,.03-4.16-.97-7.73-2.97-11.34-18.28-33-36.44-66.06-54.63-99.1-16.73-30.38-33.45-60.77-50.17-91.16-1.07-1.94-2.07-3.91-3.49-6.6Z"/><path class="d" d="M934.95,468.62c-.33,2.25-.6,5.27-1.25,8.21-.85,3.82-2.9,7.01-5.67,9.82-28.46,28.72-56.88,57.47-85.32,86.21-.34,.34-.68,.67-1,1.03-8.34,9.25-18.82,11.41-30.59,9.18-5.34-1.01-9.84-3.63-13.65-7.49-9.33-9.43-18.68-18.83-28.02-28.26-20.01-20.21-40.01-40.44-60.04-60.64-3.51-3.54-5.7-7.7-6.37-12.59-.37-2.68-.54-5.41-.5-8.11,.1-7.54,2.9-13.86,8.31-19.25,28.99-28.87,57.89-57.82,86.81-86.76,3.9-3.91,8.15-7.25,13.66-8.46,9.79-2.16,18.76-.66,26.31,6.42,2.91,2.73,5.72,5.58,8.54,8.41,26.78,26.78,53.54,53.59,80.35,80.33,3.97,3.96,6.81,8.46,7.76,14,.4,2.35,.42,4.76,.68,7.95Z"/><path class="d" d="M751.32,1359.96c-.6,.15-1.2,.43-1.81,.43-24.94,0-49.89-.02-74.83-.07-.43,0-.86-.32-1.32-.5-.15-.48-.42-.93-.42-1.38-.03-106.94-.05-213.88-.05-320.83,0-.61,.19-1.23,.34-2.11,1.1-.18,2.15-.49,3.21-.5,6.08-.05,12.15-.03,18.23-.03,17.11,0,34.22-.01,51.33,.02,1.72,0,3.51-.36,5.43,.59,.15,.78,.4,1.68,.46,2.6,.09,1.27,.03,2.56,.03,3.84,0,103.91,0,207.81-.02,311.72,0,2.04,.42,4.15-.58,6.22Z"/><path class="d" d="M1461.67,29.37c.33,8.02-2.65,14.82-8.39,20.54-14.38,14.34-28.74,28.69-43.1,43.05-26.45,26.46-52.87,52.95-79.33,79.4-20.92,20.91-41.89,41.78-62.81,62.68-20.81,20.8-41.59,41.62-62.39,62.43-5.09,5.09-10.21,10.14-15.26,15.27-10.91,11.1-31.68,10.66-42.3-1.16-9.46-10.52-9.82-29.23,.85-39.75,7.51-7.41,14.93-14.91,22.4-22.37,36.41-36.4,72.83-72.79,109.24-109.19,42.86-42.84,85.71-85.69,128.56-128.54,1.13-1.13,2.27-2.26,3.42-3.37,3.89-3.77,8.49-6.25,13.83-7.22,6.25-1.13,12.42-.91,18.39,1.51,8.74,3.55,17.6,13.09,16.89,26.7Z"/><path class="d" d="M204.67,87.54c57.4,0,114.8,0,172.2,0,2.4,0,4.81,0,7.18,.25,12.6,1.35,23.22,12.03,24.32,24.64,.29,3.31,.19,6.74-.31,10.02-1.64,10.98-12.09,22.25-26.1,22.8-1.44,.06-2.88,.06-4.32,.06-115.44,0-230.88,0-346.32,0-1.28,0-2.56,0-3.84-.03-14.06-.29-23.72-11.72-26.49-21.39-3.24-11.3,2.14-25.12,11.8-31.61,4.07-2.74,8.51-4.39,13.42-4.64,2.07-.11,4.15-.1,6.23-.1,57.4,0,114.8,0,172.2,0Z"/><path class="d" d="M205.17,176.08c56.76,0,113.52,0,170.28,0,1.76,0,3.52,.08,5.28,0,12.95-.68,25.43,10.27,27.42,22.91,2.03,12.83-2.16,23.24-13.74,30.82-3.83,2.51-8.15,3.64-12.7,3.84-1.6,.07-3.2,.02-4.8,.02-115.12,0-230.23,0-345.35,0-2.23,0-4.51,.1-6.7-.24-10.5-1.63-17.72-7.74-22.18-17.11-6.79-14.26,.19-29.41,11.37-36.38,3.87-2.41,8.09-3.78,12.69-3.82,1.76-.01,3.52-.02,5.28-.02,57.72,0,115.44,0,173.15,0Z"/><path class="d" d="M441.03,381.95c-.27-12.12,5.63-20.17,14.74-26.37,1.04-.71,2.23-1.31,3.44-1.67,10.25-3.09,19.9-2.38,28.46,4.72,1.23,1.02,2.38,2.14,3.51,3.26,33.34,33.33,66.67,66.68,100.01,100.01,23.28,23.28,46.59,46.53,69.87,69.8,1.81,1.81,3.61,3.63,5.27,5.57,9.81,11.46,9.2,36.82-12.43,44.83-6.47,2.4-13.18,2.34-19.83,.58-4.61-1.22-8.3-3.97-11.63-7.32-8.11-8.16-16.26-16.29-24.4-24.42-36.18-36.15-72.36-72.29-108.54-108.43-13.11-13.1-26.2-26.23-39.32-39.33-2.97-2.96-5.55-6.16-7.17-10.08-1.56-3.77-2.15-7.67-1.99-11.16Z"/><path class="d" d="M935.51,818.35c.8,14.74-13.6,27.73-26.72,28.26-5.35,.21-10.55-.25-15.37-2.84-2.42-1.3-4.48-3.03-6.42-4.96-22.32-22.23-44.66-44.44-67.01-66.64-28.7-28.51-57.42-57.01-86.13-85.51-7.94-7.89-15.79-15.87-23.83-23.67-10.17-9.87-9.87-26.9-3.82-35.9,4.81-7.16,11.26-11.68,19.94-12.69,2.06-.24,4.15-.35,6.22-.34,7.56,.05,13.9,2.81,19.29,8.22,33.08,33.18,66.25,66.27,99.39,99.4,25.11,25.1,50.18,50.23,75.33,75.28,4.45,4.43,7.56,9.47,8.6,15.69,.31,1.88,.36,3.81,.53,5.71Z"/><path class="d" d="M1958.77,233c-7.67,.35-13.94-2.55-19.33-7.92-56.56-56.28-113.17-112.51-169.76-168.76-2.49-2.48-4.97-4.98-7.46-7.46-10.22-10.15-10.36-30.52,1.17-40.7,1.55-1.37,3.17-2.73,4.97-3.72,8.81-4.84,18.01-5.22,27.3-1.69,2.47,.94,4.69,2.71,6.81,4.37,1.88,1.47,3.48,3.3,5.17,4.99,56.77,56.75,113.54,113.5,170.3,170.25,1.02,1.02,2.06,2.01,3.01,3.1,7.54,8.62,9.08,18.53,5.51,29.12-3.45,10.25-14.54,18.03-25.29,18.42-.8,.03-1.6,0-2.4,0Z"/></g></g></g></svg>